# xmcd
#
# Track frame offsets:
#	150
#	10183
#	20608
#	33889
#	45843
#	57082
#	65804
#	75070
#	84165
#	97714
#	112696
#	124178
#	134204
#	145377
#	157366
#	171327
#	180594
#	191357
#	204637
#	214720
#	224530
#	239033
#	249523
#	257292
#
# Disc length: 3593 seconds
#
# Revision: 0
# Processed by: cddbd v1.4PL0 Copyright (c) Steve Scherf et al.
# Submitted via: audiograbber 1.82.01
#
DISCID=470e0718
DTITLE=The Searchers - Golden Hour
DYEAR=1900
DGENRE=Pop
TTITLE0=Needles and Pins
TTITLE1=When you walk in then room
TTITLE2=I don't wnt to go on without you
TTITLE3=He's got no love
TTITLE4=What have they done to the rain
TTITLE5=Farmer John 
TTITLE6=I count the tears
TTITLE7=Someday we are gone love again
TTITLE8=Good bye my love
TTITLE9=All my sorrows
TTITLE10=Have you ever loved somebody
TTITLE11=Sugar and spice
TTITLE12=Sweets for my sweet
TTITLE13=Take me for what I'm worth
TTITLE14=Four strong winds
TTITLE15=Love potion no.9
TTITLE16=Hungry for love
TTITLE17=Till I meat you
TTITLE18=Don't thgrow your love away
TTITLE19=You wanna make her happy
TTITLE20=Saints and searchers
TTITLE21=Sea of heartbreak
TTITLE22=This feeling inside
TTITLE23=Take it or leave it
EXTD=
EXTT0=
EXTT1=
EXTT2=
EXTT3=
EXTT4=
EXTT5=
EXTT6=
EXTT7=
EXTT8=
EXTT9=
EXTT10=
EXTT11=
EXTT12=
EXTT13=
EXTT14=
EXTT15=
EXTT16=
EXTT17=
EXTT18=
EXTT19=
EXTT20=
EXTT21=
EXTT22=
EXTT23=
PLAYORDER=
